<svg width="99" height="91" viewBox="0 0 99 91" fill="none" xmlns="http://www.w3.org/2000/svg">
<path d="M85.0537 38.4171C83.8723 38.4171 82.7392 38.9159 81.9038 39.8038C81.0684 40.6917 80.5991 41.8959 80.5991 43.1515V76.2925C80.5991 77.5481 80.1298 78.7524 79.2944 79.6402C78.459 80.5281 77.326 81.0269 76.1445 81.0269H13.7805C12.5991 81.0269 11.466 80.5281 10.6306 79.6402C9.79522 78.7524 9.3259 77.5481 9.3259 76.2925V38.4171C9.3259 37.1615 9.79522 35.9573 10.6306 35.0694C11.466 34.1815 12.5991 33.6827 13.7805 33.6827H22.6896C23.661 33.7366 24.6223 33.4511 25.4267 32.8697C26.231 32.2884 26.8343 31.4432 27.1442 30.4633L29.5497 22.6989C29.8485 21.7585 30.4179 20.9417 31.1773 20.364C31.9366 19.7863 32.8477 19.4769 33.7815 19.4794H58.3262C59.5075 19.4793 60.6404 18.9804 61.4757 18.0925C62.3109 17.2047 62.7801 16.0005 62.7801 14.745C62.7801 13.4895 62.3109 12.2854 61.4757 11.3975C60.6404 10.5097 59.5075 10.0108 58.3262 10.0106H33.5588C30.7593 10.0162 28.0322 10.956 25.7622 12.6974C23.4923 14.4388 21.7943 16.8939 20.9078 19.7162L19.4823 24.4506H13.7805C10.2362 24.4506 6.83708 25.947 4.33089 28.6106C1.82471 31.2743 0.416748 34.8869 0.416748 38.6538V76.5292C0.416748 80.2962 1.82471 83.9088 4.33089 86.5724C6.83708 89.2361 10.2362 90.7325 13.7805 90.7325H76.1445C79.6888 90.7325 83.0879 89.2361 85.5941 86.5724C88.1003 83.9088 89.5083 80.2962 89.5083 76.5292V43.3883C89.5385 42.7469 89.4456 42.1057 89.2353 41.5037C89.025 40.9017 88.7017 40.3514 88.285 39.8864C87.8683 39.4214 87.367 39.0514 86.8115 38.7988C86.2559 38.5462 85.6579 38.4163 85.0537 38.4171V38.4171ZM44.9625 33.6827C41.4384 33.6827 37.9934 34.7934 35.0632 36.8743C32.133 38.9552 29.8492 41.9128 28.5005 45.3733C27.1519 48.8337 26.7991 52.6414 27.4866 56.315C28.1741 59.9885 29.8711 63.3629 32.3631 66.0114C34.855 68.6598 38.0299 70.4635 41.4863 71.1942C44.9427 71.9249 48.5254 71.5499 51.7813 70.1165C55.0372 68.6832 57.82 66.2559 59.7779 63.1416C61.7358 60.0273 62.7808 56.3659 62.7808 52.6204C62.7808 47.5978 60.9035 42.7809 57.562 39.2294C54.2204 35.6779 49.6882 33.6827 44.9625 33.6827V33.6827ZM44.9625 62.0892C43.2005 62.0892 41.478 61.5339 40.0129 60.4934C38.5478 59.453 37.4058 57.9742 36.7315 56.244C36.0572 54.5138 35.8808 52.6099 36.2245 50.7731C36.5683 48.9363 37.4168 47.2492 38.6628 45.9249C39.9088 44.6007 41.4962 43.6988 43.2244 43.3335C44.9526 42.9681 46.744 43.1556 48.3719 43.8723C49.9998 44.589 51.3913 45.8026 52.3702 47.3598C53.3492 48.9169 53.8717 50.7476 53.8717 52.6204C53.8717 53.8639 53.6412 55.0951 53.1935 56.244C52.7458 57.3928 52.0895 58.4366 51.2622 59.3159C50.4349 60.1951 49.4528 60.8926 48.3719 61.3685C47.291 61.8443 46.1325 62.0892 44.9625 62.0892V62.0892ZM93.9629 10.0106H89.5083V5.27618C89.5081 4.02066 89.0387 2.81662 88.2033 1.9289C87.3679 1.04118 86.235 0.54248 85.0537 0.54248C83.8724 0.54248 82.7395 1.04118 81.9041 1.9289C81.0687 2.81662 80.5993 4.02066 80.5991 5.27618V10.0106H76.1445C74.9632 10.0108 73.8304 10.5097 72.9951 11.3975C72.1599 12.2854 71.6906 13.4895 71.6906 14.745C71.6906 16.0005 72.1599 17.2047 72.9951 18.0925C73.8304 18.9804 74.9632 19.4793 76.1445 19.4794H80.5991V24.2139C80.5993 25.4694 81.0687 26.6734 81.9041 27.5611C82.7395 28.4489 83.8724 28.9476 85.0537 28.9476C86.235 28.9476 87.3679 28.4489 88.2033 27.5611C89.0387 26.6734 89.5081 25.4694 89.5083 24.2139V19.4794H93.9629C95.1442 19.4793 96.277 18.9804 97.1123 18.0925C97.9475 17.2047 98.4167 16.0005 98.4167 14.745C98.4167 13.4895 97.9475 12.2854 97.1123 11.3975C96.277 10.5097 95.1442 10.0108 93.9629 10.0106Z" fill="#EB8914"/>
</svg>
