<svg width="80" height="80" viewBox="0 0 80 80" fill="none" xmlns="http://www.w3.org/2000/svg">
<path d="M16.5011 8.29376C7.40233 8.29376 0 15.6961 0 24.7948C0 32.4928 5.29883 38.9759 12.4406 40.7898V75.9396C12.4406 78.1785 14.2621 80 16.5011 80C18.74 80 20.5616 78.1785 20.5616 75.9396V40.7898C27.7033 38.9759 33.0022 32.4928 33.0022 24.7948C33.0022 15.6961 25.5998 8.29376 16.5011 8.29376ZM17.9698 75.9396C17.9698 76.7494 17.3109 77.4082 16.5011 77.4082C15.6912 77.4082 15.0324 76.7494 15.0324 75.9396V41.2297C15.5164 41.2726 16.006 41.2959 16.5011 41.2959C16.9961 41.2959 17.4858 41.2728 17.9698 41.2297V75.9396ZM16.5011 38.7041C8.83145 38.7041 2.59179 32.4645 2.59179 24.7948C2.59179 17.1252 8.83145 10.8856 16.5011 10.8856C24.1707 10.8856 30.4104 17.1252 30.4104 24.7948C30.4104 32.4645 24.1707 38.7041 16.5011 38.7041Z" fill="white"/>
<path d="M19.6341 14.277C18.621 13.9756 17.5668 13.8229 16.5011 13.8229C15.7854 13.8229 15.2052 14.4031 15.2052 15.1188C15.2052 15.8345 15.7854 16.4147 16.5011 16.4147C17.3165 16.4147 18.122 16.5313 18.8951 16.7613C19.0182 16.7979 19.1427 16.8154 19.265 16.8154C19.8236 16.8154 20.3392 16.4513 20.5066 15.8885C20.7107 15.2026 20.32 14.481 19.6341 14.277Z" fill="white"/>
<path d="M22.5089 17.1001C21.9976 17.6009 21.9888 18.4213 22.4895 18.9327C24.0318 20.5078 24.8812 22.5897 24.8812 24.7948C24.8812 25.6109 24.7644 26.4169 24.5343 27.1903C24.33 27.8763 24.7205 28.5978 25.4065 28.8021C25.5299 28.8389 25.6544 28.8563 25.7768 28.8563C26.3352 28.8563 26.8508 28.4924 27.0182 27.9298C27.3201 26.9163 27.473 25.8614 27.473 24.7948C27.473 21.9077 26.3608 19.1819 24.3414 17.1195C23.8407 16.608 23.0203 16.5994 22.5089 17.1001Z" fill="white"/>
<path d="M64.8812 0C56.5447 0 49.7625 6.7822 49.7625 15.1188C49.7625 23.4554 56.5447 30.2376 64.8812 30.2376C73.2178 30.2376 80 23.4554 80 15.1188C80 6.7822 73.2178 0 64.8812 0ZM64.8812 27.6458C57.9738 27.6458 52.3542 22.0263 52.3542 15.1188C52.3542 8.21132 57.9738 2.59179 64.8812 2.59179C71.7887 2.59179 77.4082 8.21132 77.4082 15.1188C77.4082 22.0263 71.7887 27.6458 64.8812 27.6458Z" fill="white"/>
<path d="M45.5292 27.6458C39.4792 27.6458 34.5573 32.5677 34.5573 38.6177C34.5573 44.6676 39.4792 49.5896 45.5292 49.5896C51.5791 49.5896 56.5011 44.6676 56.5011 38.6177C56.5011 32.5677 51.5791 27.6458 45.5292 27.6458ZM45.5292 46.9978C40.9084 46.9978 37.149 43.2385 37.149 38.6177C37.149 33.9969 40.9084 30.2375 45.5292 30.2375C50.15 30.2375 53.9093 33.9969 53.9093 38.6177C53.9093 43.2385 50.15 46.9978 45.5292 46.9978Z" fill="white"/>
<path d="M68.0819 6.07656C67.0555 5.71336 65.9787 5.52917 64.8813 5.52917C64.1657 5.52917 63.5854 6.10939 63.5854 6.82507C63.5854 7.54075 64.1657 8.12097 64.8813 8.12097C65.6834 8.12097 66.4691 8.25522 67.2171 8.51993C67.3601 8.57056 67.506 8.59458 67.6494 8.59458C68.1829 8.59458 68.6828 8.26248 68.871 7.73064C69.11 7.05591 68.7566 6.31553 68.0819 6.07656Z" fill="white"/>
<path d="M72.8725 9.81636C72.4765 9.2206 71.6721 9.05835 71.0759 9.45455C70.4799 9.85075 70.3178 10.6551 70.714 11.2512C71.476 12.3976 71.879 13.7352 71.879 15.1188C71.879 16.5027 71.476 17.8402 70.7139 18.9866C70.3177 19.5826 70.4797 20.3869 71.0757 20.7833C71.2963 20.93 71.5455 21.0001 71.7919 21.0001C72.2112 21.0001 72.6228 20.7969 72.8723 20.4215C73.918 18.8484 74.4706 17.0148 74.4706 15.1188C74.4708 13.223 73.918 11.3896 72.8725 9.81636Z" fill="white"/>
<path d="M45.5293 33.1749C44.8136 33.1749 44.2334 33.7551 44.2334 34.4708C44.2334 35.1865 44.8136 35.7667 45.5293 35.7667C47.1013 35.7667 48.3803 37.0457 48.3803 38.6177C48.3803 39.3334 48.9605 39.9136 49.6762 39.9136C50.3918 39.9136 50.9721 39.3334 50.9721 38.6177C50.9721 35.6166 48.5304 33.1749 45.5293 33.1749Z" fill="white"/>
<path d="M40.0001 17.797C42.239 17.797 44.0605 15.9755 44.0605 13.7365C44.0605 11.4975 42.239 9.67603 40.0001 9.67603C37.7611 9.67603 35.9396 11.4975 35.9396 13.7365C35.9396 15.9755 37.7611 17.797 40.0001 17.797ZM40.0001 12.2678C40.8099 12.2678 41.4687 12.9267 41.4687 13.7365C41.4687 14.5463 40.8099 15.2052 40.0001 15.2052C39.1902 15.2052 38.5314 14.5463 38.5314 13.7365C38.5314 12.9267 39.1902 12.2678 40.0001 12.2678Z" fill="white"/>
<path d="M66.2636 35.9395C64.0246 35.9395 62.2031 37.761 62.2031 39.9999C62.2031 42.2389 64.0246 44.0604 66.2636 44.0604C68.5026 44.0604 70.3241 42.2389 70.3241 39.9999C70.3241 37.761 68.5026 35.9395 66.2636 35.9395ZM66.2636 41.4686C65.4537 41.4686 64.7949 40.8098 64.7949 39.9999C64.7949 39.1901 65.4537 38.5312 66.2636 38.5312C67.0734 38.5312 67.7323 39.1901 67.7323 39.9999C67.7323 40.8098 67.0734 41.4686 66.2636 41.4686Z" fill="white"/>
</svg>
